<?xml version="1.0" encoding="utf-8"?>
<!-- Generator: Adobe Illustrator 25.2.3, SVG Export Plug-In . SVG Version: 6.00 Build 0)  -->
<svg version="1.1" id="Layer_1" xmlns="http://www.w3.org/2000/svg" xmlns:xlink="http://www.w3.org/1999/xlink" x="0px" y="0px"
	 viewBox="0 0 1024 1024" style="enable-background:new 0 0 1024 1024;" xml:space="preserve">
<style type="text/css">
	.st0{fill:#0070B9;}
	.st1{fill:#25BFF0;}
	.st2{fill:#2CBB9D;}
	.st3{fill:#F37921;}
	.st4{fill:#EC353F;}
	.st5{fill:#F9B418;}
	.st6{fill:#F173B1;}
	.st7{fill:#0270B6;}
	.st8{fill:#0371B6;}
	.st9{fill:#146CAC;}
	.st10{fill:#1569AF;}
	.st11{fill:#1071AC;}
</style>
<g>
	<path class="st0" d="M624.92,511.5c0,36.31-0.05,72.61,0.08,108.92c0.01,2.98-0.6,3.58-3.58,3.58c-72.61-0.11-145.23-0.11-217.84,0
		c-2.98,0-3.58-0.6-3.58-3.58c0.11-72.61,0.11-145.23,0-217.84c0-2.98,0.6-3.58,3.58-3.58c72.61,0.11,145.23,0.11,217.84,0
		c2.98,0,3.59,0.6,3.58,3.58C624.87,438.89,624.92,475.19,624.92,511.5z"/>
	<path class="st1" d="M513.75,509.78c-1.26,7.66-2.52,15.32-3.79,22.97c-0.43,2.63-0.52,5.32-4.42,5.36
		c-3.9,0.03-3.52-2.84-3.93-5.13c-1.33-7.46-2.55-14.94-4.66-22.35c0,7.25,0.09,14.5-0.05,21.75c-0.04,2.18,1.31,5.47-2.85,5.6
		c-4.09,0.13-3.2-3.05-3.22-5.34c-0.07-12.79-0.05-25.59-0.01-38.38c0.01-2.42-0.49-5.17,3.46-5.27c3.49-0.08,6.09,0.26,6.69,4.62
		c1.24,9.02,2.86,17.99,4.46,27.87c2.2-3.6,1.86-6.94,2.45-9.98c1.18-6.03,2.32-12.09,2.91-18.19c0.43-4.43,3.11-4.24,6.26-4.32
		c3.62-0.1,3.97,1.98,3.95,4.81c-0.06,13.3-0.04,26.61-0.04,39.91c0,2.29-0.02,4.44-3.28,4.31c-2.99-0.12-2.87-2.21-2.88-4.23
		c-0.02-7.98-0.01-15.95-0.01-23.93C514.46,509.84,514.11,509.81,513.75,509.78z"/>
	<path class="st2" d="M456.06,502.25c-0.15,3.43,0.66,7.04-2,10.01c-0.32,0.36-0.34,1.42-0.04,1.82c3.82,5.11,1.85,10.94,1.97,16.44
		c0.1,4.47-2.69,6.93-7.15,7.4c-12.74,1.36-12.73,1.36-12.73-11.32c0-10.82,0.13-21.64-0.08-32.45c-0.08-3.94,1.32-5.58,5.2-5.11
		c0.49,0.06,1,0.01,1.5,0C454.25,489.01,456.05,490.8,456.06,502.25z"/>
	<path class="st3" d="M473.16,489.15c2.89-0.56,4.17,0.58,4.6,3.55c1.96,13.61,4.16,27.19,6.16,40.8c0.25,1.68,1.62,4.17-1.74,4.66
		c-2.92,0.42-4.52-0.97-4.54-3.81c-0.03-3.54-1.81-4.28-5.03-4.32c-3.28-0.04-3.9,1.52-4.02,4.19c-0.11,2.64-1.12,4.38-4.31,3.94
		c-3.47-0.48-2.09-2.95-1.85-4.58c1.97-13.45,4.12-26.88,6.13-40.33C468.98,490.45,469.74,488.37,473.16,489.15z"/>
	<path class="st4" d="M586.08,489.08c2.83-0.49,3.63,1.03,4,3.61c1.99,13.79,4.14,27.55,6.23,41.33c0.27,1.74,1.22,3.77-1.78,4.11
		c-2.54,0.29-4.31-0.55-4.42-3.35c-0.13-3.03-0.83-4.94-4.62-4.75c-3.08,0.16-4.72,1.02-4.64,4.23c0.07,2.89-1.17,4.33-4.22,3.92
		c-3.44-0.47-2-2.87-1.75-4.58c2.02-13.61,4.26-27.19,6.14-40.81C581.5,489.33,583.21,488.72,586.08,489.08z"/>
	<path class="st5" d="M529.08,513.55c0-6.99,0.07-13.97-0.04-20.96c-0.04-2.47,0.64-3.85,3.35-3.49c0.33,0.04,0.66,0.05,1,0.05
		c13.73-0.12,14.95,1.07,14.95,14.58c0,2.16,0.04,4.33,0,6.49c-0.11,6.84-2.34,9.52-9.06,9.79c-3.26,0.13-3.93,1.41-3.8,4.22
		c0.15,3.15-0.02,6.32,0.03,9.48c0.04,2.42,0.3,4.56-3.37,4.58c-4.04,0.02-3.03-2.67-3.05-4.77c-0.08-6.65-0.03-13.31-0.03-19.96
		C529.06,513.55,529.07,513.55,529.08,513.55z"/>
	<path class="st6" d="M554.8,513.07c0-6.82,0.08-13.65-0.04-20.47c-0.04-2.54,0.81-3.65,3.44-3.51c2.82,0.15,5.66,0.1,8.49,0.05
		c2.23-0.04,3.87,0.23,3.81,3.17c-0.06,2.66-1.62,3.14-3.57,2.85c-5.11-0.77-6.41,1.7-5.76,6.22c0.21,1.47,0.21,3.01,0,4.48
		c-0.5,3.53,0.91,4.8,4.43,4.51c1.78-0.15,4.18-0.76,4.5,2.41c0.36,3.57-1.85,3.83-4.38,3.53c-3.5-0.42-4.79,0.96-4.59,4.47
		c0.23,4.15,0.09,8.32,0.03,12.48c-0.03,2.2,0.75,4.85-3.06,4.95c-4.2,0.11-3.29-2.83-3.31-5.16c-0.06-6.66-0.02-13.31-0.02-19.97
		C554.77,513.07,554.78,513.07,554.8,513.07z"/>
	<path class="st7" d="M442.94,524.02c-0.01-1.33-0.03-2.66,0-3.98c0.04-1.87,0.02-3.82,2.68-3.88c2.32-0.05,4,1.05,4.19,3.35
		c0.26,3.13,0.22,6.3,0.07,9.44c-0.11,2.23-1.7,3.03-3.8,3.05c-2.42,0.03-3.15-1.38-3.14-3.5
		C442.96,527,442.95,525.51,442.94,524.02z"/>
	<path class="st8" d="M442.94,502.61c0-0.83-0.06-1.66,0.01-2.48c0.18-2.16-0.7-4.95,3.01-5.05c3.47-0.09,4.06,2.11,4.01,4.89
		c-0.03,1.82-0.01,3.64,0,5.45c0.03,2.64-0.77,4.56-3.86,4.59c-3.21,0.04-3.17-2.21-3.19-4.43c-0.01-0.99,0-1.98,0-2.97
		C442.93,502.61,442.94,502.61,442.94,502.61z"/>
	<path class="st9" d="M473.95,507.97c0.67,4.69,1.39,9.37,2,14.07c0.29,2.25-1.36,2.32-2.92,2.26c-1.51-0.06-3.2-0.04-2.87-2.35
		c0.68-4.65,1.41-9.3,2.11-13.95C472.83,507.99,473.39,507.98,473.95,507.97z"/>
	<path class="st10" d="M584.83,506.37c2.7,5.14,2.62,10.62,3.53,15.9c0.4,2.32-1.65,1.89-3.05,2.07c-1.91,0.25-2.88-0.49-2.62-2.45
		C583.37,516.72,584.11,511.55,584.83,506.37z"/>
	<path class="st11" d="M535.42,504.35c0.01-2,0-4,0.01-5.99c0.01-1.68-0.23-3.48,2.42-3.27c2.12,0.17,4.07,0.38,4.05,3.22
		c-0.03,4.16,0.05,8.32-0.04,12.48c-0.05,2.47-1.5,3.43-3.93,3.41c-2.94-0.03-2.45-2.11-2.51-3.85
		C535.37,508.35,535.42,506.35,535.42,504.35z"/>
</g>
</svg>
