<svg id="Layer_1" data-name="Layer 1" xmlns="http://www.w3.org/2000/svg" viewBox="0 0 300 300"><defs><style>.cls-1{fill:#fefefe;}.cls-2{fill:#0678b5;}.cls-3{fill:#0177b4;}.cls-4{fill:#05a0db;}.cls-5{fill:#12a6dd;}.cls-6{fill:#0da4dc;}.cls-7{fill:#0b7cb7;}.cls-8{fill:#08a2dc;}.cls-9{fill:#0277b4;}.cls-10{fill:#035295;}.cls-11{fill:#b4b7ba;}.cls-12{fill:#1490cb;}.cls-13{fill:#4185b3;}.cls-14{fill:#006cb0;}.cls-15{fill:#075c9c;}.cls-16{fill:#0a4483;}.cls-17{fill:#c1c3c6;}.cls-18{fill:#c7cacc;}.cls-19{fill:#009dda;}.cls-20{fill:#f4f7fa;}.cls-21{fill:#0579b5;}.cls-22{fill:#055496;}.cls-23{fill:#035395;}.cls-24{fill:#fcfdfd;}.cls-25{fill:#69c6eb;}.cls-26{fill:#6fc8eb;}.cls-27{fill:#6cc8eb;}</style></defs><path class="cls-1" d="M662,662H362V362H662Zm-46-53h0l.78-1a3,3,0,0,0,.35-.93c.07-17.28.2-34.57.11-51.86,0-3.79-2.6-5.51-6.32-5.51H562c-3.38,0-5.82,1.2-6.3,4.92a40.67,40.67,0,0,0-.5,4.39q0,21.91,0,43.83a29,29,0,0,0,.64,4.3l0,0,1,2.05,0,0,1,1,0,0c1.81.56,3.62,1.59,5.43,1.6q23.16.19,46.3,0c1.81,0,3.61-1.1,5.41-1.68h0ZM414.55,577.5l.77.91.17.29c2.87,1.42,5.74,4,8.63,4.06,29.32.24,58.65.06,88,0,10.48.06,21,.15,31.44.08.78,0,1.54-1.2,2.32-1.84l.21-28.9A18.27,18.27,0,0,1,559,540l31-.14h21.91V454c-.31-2.35-.63-4.69-.94-7l-.78-1.51-2-2.55L603,440l-2-.06c-.68-.33-1.36-.95-2-.94q-43.46,0-86.93.17c-29.57-.06-59.13-.18-88.7-.13-5.44,0-9.44,3.92-10.45,9.31l-.78,1.62,0,31,0,47q0,16.5,0,33v9l.13,2.94.63,1.17-.07-.08.91,2.19,0,0,.86,1.17ZM628,617l.86-1.18-.61-.3c-.1.47-.21,1-.31,1.42l-1.06.93-4.19,4.76-8.76,5c-3.94.41-7.89,1.18-11.84,1.18q-90.12.12-180.24,0c-3.95,0-7.9-.77-11.84-1.18l-7.24-4-1,2.1,8.14,3.46c3.57.6,7.15,1.73,10.72,1.74q91.37.17,182.72,0c3.58,0,7.15-1.14,10.72-1.74l9.27-5.88,3.77-5.19Zm-232,0,.9,1.08,2.82,5,2-1.7c-1.53-1.17-3.07-2.35-4.61-3.51l-1-.94-.32-1.42-.62.3C395.39,616.24,395.69,616.63,396,617Zm-1.48-3.5c.07-.28.28-.63.18-.83s-.49-.29-.76-.42c-.06.25-.26.58-.17.73S394.24,613.37,394.5,613.53Zm235.12-.83c-.11,0-.28,0-.33.1a1.14,1.14,0,0,0-.08.43l.56-.13Z" transform="translate(-362 -362)"/><path class="cls-2" d="M555.74,554.58c.48-3.72,2.92-4.92,6.3-4.92h48.88c3.72,0,6.3,1.72,6.32,5.51.09,17.29,0,34.58-.11,51.86a3,3,0,0,1-.35.93l-.78,1h0l-1,1h0l-57.14.08,0,0-1-1,0,0c-.34-.68-.69-1.36-1-2.05l0,0ZM608.87,602c0-5.24,0-10.2,0-15.16-.14-12.23-7.9-16.47-18.43-10.33-2.4-4.48-6.34-1.69-9.68-2.39v28H590c0-5-.13-9.79,0-14.57.11-3,1.09-5.77,4.89-5.62,3.56.13,4.14,2.75,4.15,5.64,0,4.78,0,9.56,0,14.47Zm-35-27.69h-8.76v27.6h8.76Zm-6.14-4.94c5.05-.55,7.23-2.34,7.15-5.93a5,5,0,0,0-5.41-5.33c-3.53,0-6,2.14-5.39,5.62C564.5,565.92,566.75,567.84,567.77,569.33Z" transform="translate(-362 -362)"/><path class="cls-3" d="M608.18,442.93l2,2.55.78,1.51c.31,2.35.63,4.69.94,7a39,39,0,0,0-.84,5.73c-.06,24.76-.12,49.52.05,74.28,0,4-1.13,5.27-5.07,5-5.3-.31-10.64-.08-15.95-.08l-.48-5H541a31.83,31.83,0,0,1,4.52-2.66c6.07-2.41,12.2-4.66,18.81-7.15L561,521l14.4,0c15.28,0,15.18,0,14.65-15.18-.11-3.16-1.3-4-4.16-3.85-3.64.16-7.28,0-10.92,0q-1-6.46-2-12.91c5.12-.06,11.88,1.81,14.87-.74,2.79-2.38,1.6-9.46,2.11-14.48a4.59,4.59,0,0,0-.17-2.43c-.31-.62-1.18-.94-1.81-1.4.44-2.22.74-4.48,1.34-6.66,1.4-5,3.12-10,4.31-15.07.28-1.21-.87-2.83-1.55-4.17A26.08,26.08,0,0,0,590,441l11-1.08,2,.06Z" transform="translate(-362 -362)"/><path class="cls-4" d="M412.12,570v-9c3.75.1,6.37,4.32,11,2.17,4.06-1.87,8.83-2.21,13.28-3.24,2.37-.54,4.74-1.11,7.1-1.66a17,17,0,0,0-6.39-2c-2.72-.31-4.47-1.26-4.07-4.35a65.86,65.86,0,0,0,7.86,1q22.18.13,44.36,0A26.94,26.94,0,0,0,490,552l4.57-2.09L512,544h0q-.08,18.48-.14,37c-21.46,0-42.92,0-64.39,0-10.7,0-21.49.91-32-2.28l-.17-.29-.77-.91v-.11l-.86-1.17,0,0-.91-2.19.07.08c0-.39.07-.77.1-1.16Z" transform="translate(-362 -362)"/><path class="cls-5" d="M412.89,448.35c1-5.39,5-9.3,10.45-9.31,29.57-.05,59.13.07,88.7.13L512,441H463.59l-.15,1.23,5.44,2.61c-.11.73,0,1.36-.28,1.66-5.4,6-10.9,11.87-16.22,17.92-1.1,1.25-1.6,3-2.38,4.56l-12,1h-3l-1,0a1.25,1.25,0,0,1-.69.07l-1.84,1,1.6.87v3c-2.31.81-4.57,1.75-6.92,2.4-4.66,1.28-9.37,2.41-14.06,3.6l0-31Z" transform="translate(-362 -362)"/><path class="cls-6" d="M412.08,481c4.69-1.19,9.4-2.32,14.06-3.6,2.35-.65,4.61-1.59,6.92-2.4v14c12,0,23-.06,34.1,0,3.27,0,6.54.48,9.81.74l6.75,4.89L477,501.92H433.13v18.8c-.56,1-.94,2.84-1.71,3-6.4,1.59-12.87,2.87-19.32,4.25Z" transform="translate(-362 -362)"/><path class="cls-7" d="M512,441l.06-1.84q43.47-.1,86.93-.17c.69,0,1.37.61,2,.94L590,441l-22.38,0h-22l.07,1.32c6.14,2.16,6.48,3.58,3.82,9.83C547,458,545.15,464.05,543,470c-9,0-9,0-9,9.09,0,1.63,0,3.26-.07,4.89-.82,0-2-.27-2.4.15-3.31,3.29-7.1,3.32-11.22,2.13-.35-.09-1,.73-1.44,1.12l-7-4.19Z" transform="translate(-362 -362)"/><path class="cls-8" d="M412.1,528c6.45-1.38,12.92-2.66,19.32-4.25.77-.19,1.15-2,1.71-3l18.86.07,36.95.23.74,1.09-.18,11.65c-17.15,0-34.31.21-51.46,0-4,0-5.3,1.15-5,5.09.31,4.31,0,8.65,0,13-.4,3.1,1.35,4,4.07,4.36a17,17,0,0,1,6.39,2c-2.36.55-4.73,1.12-7.1,1.66-4.45,1-9.22,1.37-13.28,3.24-4.65,2.15-7.27-2.07-11-2.17Q412.11,544.5,412.1,528Z" transform="translate(-362 -362)"/><path class="cls-9" d="M511.86,581q.08-18.5.14-37l21-8a21.47,21.47,0,0,1,1,4.19c.29,11.66.26,11.66,12.12,11.91l-.21,28.9-33.81,0Z" transform="translate(-362 -362)"/><path class="cls-10" d="M546.07,552.09c-11.86-.25-11.83-.25-12.12-11.91a21.47,21.47,0,0,0-1-4.19c1.47-5.51,5.17-2.06,8-2h48.57l.48,5h-.14c-8.43,0-16.86-.06-25.29,0a35.41,35.41,0,0,0-5.63,1A18.27,18.27,0,0,0,546.07,552.09Z" transform="translate(-362 -362)"/><path class="cls-11" d="M410,627.66c3.94.41,7.89,1.18,11.84,1.18q90.12.12,180.24,0c4,0,7.9-.77,11.84-1.18l.12,1.52c-3.57.6-7.14,1.73-10.72,1.74q-91.36.17-182.72,0c-3.57,0-7.15-1.14-10.72-1.75Z" transform="translate(-362 -362)"/><path class="cls-12" d="M415.49,578.7c10.49,3.19,21.28,2.25,32,2.28,21.47,0,42.93,0,64.39,0l.19,0c0,.57,0,1.15.05,1.72-29.33.07-58.66.25-88,0C421.23,582.74,418.36,580.12,415.49,578.7Z" transform="translate(-362 -362)"/><path class="cls-13" d="M557.89,610.1,615,610c-1.8.58-3.6,1.66-5.41,1.68q-23.14.19-46.3,0C561.51,611.69,559.7,610.66,557.89,610.1Z" transform="translate(-362 -362)"/><path class="cls-14" d="M590.07,539c5.31,0,10.65-.23,15.95.08,3.94.23,5.09-1.08,5.07-5-.17-24.76-.11-49.52-.05-74.28a39,39,0,0,1,.84-5.73v85.83H590a5,5,0,0,0,0-.86Z" transform="translate(-362 -362)"/><path class="cls-15" d="M512.1,582.75c0-.57,0-1.15-.05-1.72l33.81,0c-.78.64-1.54,1.83-2.32,1.84C533.06,582.9,522.58,582.81,512.1,582.75Z" transform="translate(-362 -362)"/><path class="cls-13" d="M555.74,554.58l.15,52.52a29,29,0,0,1-.64-4.3q-.07-21.91,0-43.83A40.67,40.67,0,0,1,555.74,554.58Z" transform="translate(-362 -362)"/><path class="cls-16" d="M589.93,539a5,5,0,0,1,0,.86L559,540a35.41,35.41,0,0,1,5.63-1C573.07,538.94,581.5,539,589.93,539Z" transform="translate(-362 -362)"/><path class="cls-17" d="M614.08,629.18l-.12-1.52,8.76-5a6.55,6.55,0,0,0,.64.65Z" transform="translate(-362 -362)"/><path class="cls-17" d="M410,627.66l-.12,1.51-8.14-3.45,1-2.1Z" transform="translate(-362 -362)"/><path class="cls-18" d="M397.09,617.9l4.6,3.52-2,1.7-2.82-5Z" transform="translate(-362 -362)"/><path class="cls-18" d="M622.72,622.66l4.19-4.76.22.22q-1.89,2.58-3.77,5.18A5.53,5.53,0,0,1,622.72,622.66Z" transform="translate(-362 -362)"/><path class="cls-7" d="M608.18,442.93,603,440Z" transform="translate(-362 -362)"/><path class="cls-19" d="M412.12,570c.29,1,.57,2,.86,3h-.73Z" transform="translate(-362 -362)"/><path class="cls-18" d="M394.5,613.53c-.26-.16-.61-.28-.75-.52s.11-.48.17-.73c.27.13.66.2.76.42S394.57,613.25,394.5,613.53Z" transform="translate(-362 -362)"/><path class="cls-12" d="M412.81,574.06l.91,2.19Z" transform="translate(-362 -362)"/><path class="cls-13" d="M555.87,607.06c.34.69.69,1.37,1,2.05C556.56,608.43,556.21,607.75,555.87,607.06Z" transform="translate(-362 -362)"/><path class="cls-18" d="M629.62,612.7l.15.4-.56.13a1.14,1.14,0,0,1,.08-.43C629.34,612.72,629.51,612.73,629.62,612.7Z" transform="translate(-362 -362)"/><path class="cls-18" d="M396,617l-.88-1.18.62-.3L396,617Z" transform="translate(-362 -362)"/><path class="cls-18" d="M628,617l.32-1.42.61.3L628,617Z" transform="translate(-362 -362)"/><path class="cls-12" d="M412.25,573H413c0,.39-.07.77-.1,1.16Z" transform="translate(-362 -362)"/><path class="cls-19" d="M412.89,448.35l-.78,1.62Z" transform="translate(-362 -362)"/><path class="cls-12" d="M413.68,576.22l.86,1.17Z" transform="translate(-362 -362)"/><path class="cls-12" d="M414.55,577.5l.77.91Z" transform="translate(-362 -362)"/><path class="cls-7" d="M610.94,447l-.78-1.51Z" transform="translate(-362 -362)"/><path class="cls-13" d="M616,609l.78-1Z" transform="translate(-362 -362)"/><path class="cls-13" d="M556.88,609.08l1,1Z" transform="translate(-362 -362)"/><path class="cls-13" d="M615,610l1-1Z" transform="translate(-362 -362)"/><path class="cls-18" d="M396,617l1,.93-.21.21L396,617Z" transform="translate(-362 -362)"/><path class="cls-18" d="M628,617l-.91,1.08-.21-.21L628,617Z" transform="translate(-362 -362)"/><path class="cls-20" d="M608.87,602h-9.76c0-4.91,0-9.69,0-14.47,0-2.89-.59-5.51-4.15-5.64-3.8-.15-4.78,2.6-4.89,5.62-.17,4.78,0,9.58,0,14.57h-9.27v-28c3.34.7,7.28-2.09,9.68,2.39,10.53-6.14,18.29-1.9,18.43,10.33C608.92,591.76,608.87,596.72,608.87,602Z" transform="translate(-362 -362)"/><path class="cls-1" d="M573.91,574.27v27.6h-8.76v-27.6Z" transform="translate(-362 -362)"/><path class="cls-20" d="M567.77,569.33c-1-1.49-3.27-3.41-3.65-5.64-.6-3.48,1.86-5.62,5.39-5.62a5,5,0,0,1,5.41,5.33C575,567,572.82,568.78,567.77,569.33Z" transform="translate(-362 -362)"/><path class="cls-21" d="M543,470c2.15-6,4-12,6.51-17.86,2.66-6.25,2.32-7.67-3.82-9.83l-.07-1.32h22L590,441a26.08,26.08,0,0,1,2.09,3.08c.68,1.34,1.83,3,1.55,4.17-1.19,5.08-2.91,10-4.31,15.07-.6,2.18-.9,4.44-1.34,6.66Z" transform="translate(-362 -362)"/><path class="cls-22" d="M543,470h45c.63.46,1.5.78,1.81,1.4a4.59,4.59,0,0,1,.17,2.43c-.51,5,.68,12.1-2.11,14.48-3,2.55-9.75.68-14.87.74H534.3c-.16-2.15-.28-3.6-.39-5.06,0-1.63.07-3.26.07-4.89C534,470.05,534,470.05,543,470Z" transform="translate(-362 -362)"/><path class="cls-23" d="M575,502c3.64,0,7.28.16,10.92,0,2.86-.13,4.05.69,4.16,3.85.53,15.19.63,15.18-14.65,15.18L561,521,560,521l-6.06-6.23,4.52-3.4-14.61-9.3Z" transform="translate(-362 -362)"/><path class="cls-21" d="M575,502l-31.18.1-25-14.67c.48-.39,1.09-1.21,1.44-1.12,4.12,1.19,7.91,1.16,11.22-2.13.43-.42,1.58-.12,2.4-.15.11,1.46.23,2.91.39,5.06H573Q574,495.5,575,502Z" transform="translate(-362 -362)"/><path class="cls-15" d="M560,521l1.06,0,3.32,3.17c-6.61,2.49-12.74,4.74-18.81,7.15A31.83,31.83,0,0,0,541,534c-2.85-.06-6.55-3.51-8,2l-21,8h0c-.05-1.46-.1-2.92-.16-4.38l31.73-18.75Z" transform="translate(-362 -362)"/><path class="cls-24" d="M543.55,520.89l-31.73,18.75-17.25,10.29L490,552q-.25-9.12-.5-18.26l.18-11.65.12-1.11,0-19-.1-1.11c0-3.57,0-7.15,0-10.72q.15-9.65.32-19.28l21.91,12.31,7,4.19,25,14.67,14.61,9.3-4.52,3.4Z" transform="translate(-362 -362)"/><path class="cls-25" d="M489.5,533.76q.24,9.13.5,18.26a26.94,26.94,0,0,1-4.73.82q-22.17.1-44.36,0a65.86,65.86,0,0,1-7.86-1c0-4.34.28-8.68,0-13-.28-3.94,1-5.13,5-5.09C455.19,534,472.35,533.8,489.5,533.76Z" transform="translate(-362 -362)"/><path class="cls-7" d="M494.57,549.93l17.25-10.29c.06,1.46.11,2.92.16,4.38Z" transform="translate(-362 -362)"/><path class="cls-6" d="M511.89,483.2,490,470.89a37.46,37.46,0,0,0-5.23-.76c-11.58-.1-23.17-.1-34.75-.14v-1c.78-1.53,1.28-3.31,2.38-4.56,5.32-6.05,10.82-11.94,16.22-17.92.27-.3.17-.93.28-1.66l-5.44-2.61.15-1.23H512Z" transform="translate(-362 -362)"/><path class="cls-26" d="M450,470c11.58,0,23.17,0,34.75.14a37.46,37.46,0,0,1,5.23.76q-.17,9.63-.32,19.28a1.7,1.7,0,0,1-.74-.16l-.89-.85-11.06.65c-3.27-.26-6.54-.71-9.81-.74-11.07-.09-22.14,0-34.1,0V475c0-1,0-2,0-3l.24-1.91A1.25,1.25,0,0,0,434,470l1,0h15Z" transform="translate(-362 -362)"/><path class="cls-19" d="M450,470H438l12-1Z" transform="translate(-362 -362)"/><path class="cls-6" d="M433.29,470.1l-.24,1.91-1.6-.87Z" transform="translate(-362 -362)"/><path class="cls-19" d="M435,470l-1,0Z" transform="translate(-362 -362)"/><path class="cls-26" d="M452,520.79l-18.86-.07v-18.8H477l4,.23c-.66.62-1.2,1.47-2,1.81q-12.3,5.52-24.67,10.88C451.52,516.06,450.79,518,452,520.79Z" transform="translate(-362 -362)"/><path class="cls-8" d="M481,502.15l-4-.23,6.71-7.22L477,489.81l11.06-.65.89.85a1.7,1.7,0,0,0,.74.16c0,3.57,0,7.15,0,10.72L488.9,502Z" transform="translate(-362 -362)"/><path class="cls-27" d="M481,502.15l7.91-.19c.3,0,.59,0,.88,0q0,9.5,0,19l-.86,0L452,520.79c-1.2-2.77-.47-4.73,2.35-5.95Q466.7,509.46,479,504C479.79,503.62,480.33,502.77,481,502.15Z" transform="translate(-362 -362)"/><path class="cls-26" d="M488.94,521l.86,0-.12,1.11Z" transform="translate(-362 -362)"/><path class="cls-16" d="M543.55,520.89l10.36-6.13L560,521Z" transform="translate(-362 -362)"/><path class="cls-26" d="M489.78,502c-.29,0-.58,0-.88,0l.78-1.07C489.71,501.26,489.75,501.63,489.78,502Z" transform="translate(-362 -362)"/><path class="cls-6" d="M488.92,490l-.89-.85Z" transform="translate(-362 -362)"/></svg>
